<?xml version="1.0" encoding="utf-8"?>
<!-- Generator: Adobe Illustrator 22.0.1, SVG Export Plug-In . SVG Version: 6.00 Build 0)  -->
<svg version="1.1" id="Layer_1_copy" xmlns="http://www.w3.org/2000/svg" xmlns:xlink="http://www.w3.org/1999/xlink" x="0px"
	 y="0px" viewBox="0 0 1944.7 612.7" style="enable-background:new 0 0 1944.7 612.7;" xml:space="preserve">
<style type="text/css">
	.st0{fill:#384A9B;}
</style>
<g>
	<path class="st0" d="M1434.3,494.6c0-36.2,0.1-72.3-0.1-108.5c0-3.9,0.9-4.9,4.9-4.9c69.5,0.1,139-0.2,208.4,0.3
		c15.8,0.1,31.7,0.7,47.6,1.9c14.4,1,28.8,2.2,43.1,4c20.7,2.7,41.2,6,61.6,10.5c21.8,4.9,43.1,11.2,63.1,20.8
		c22.9,11.1,43.9,25.1,54.9,49.6c3.3,7.3,4.8,15,5.7,23.1c1.5,13.2-1.1,25.3-7.3,36.6c-8.3,15.4-21.1,26.4-35.7,35.6
		c-23.7,14.9-49.8,23.6-76.7,30.2c-15.6,3.9-31.5,6.6-47.6,8.5c-14,1.7-28,3-42.1,4c-26,1.9-52,1.9-78,1.9c-65.5,0-131,0-196.4,0.1
		c-4.2,0-5.5-0.8-5.5-5.3C1434.4,566.9,1434.3,530.8,1434.3,494.6z M1619.3,496.4c0,12.8,0.2,25.7-0.1,38.5
		c-0.1,3.9,1.1,4.6,4.7,4.6c20.2,0.2,40.2-0.5,60.1-4.2c14.6-2.7,29.1-5.8,41.3-14.9c9.7-7.3,16.3-17.7,11.2-32.6
		c-3.4-9.9-10.4-15.7-18.8-20.1c-20.6-10.8-43.3-12.5-65.9-14.2c-9.4-0.7-19,0-28.5-0.2c-3.3-0.1-4.2,0.8-4.2,4.1
		C1619.5,470.4,1619.3,483.4,1619.3,496.4z"/>
	<path class="st0" d="M1292.3,497.8c0-35.3,0-69.5,0-103.6c0-4.1-1.8-9.4,0.7-12.1c2.5-2.6,7.9-0.8,12-0.8
		c34.8-0.1,69.7,0,104.5-0.1c4,0,4.9,1.1,4.9,5c-0.1,72.5-0.1,145,0,217.5c0,3.6-0.6,4.8-4.5,4.8c-37.8-0.2-75.7-0.1-113.5,0
		c-2.6,0-4.3-0.7-6.1-2.5c-13.9-14.7-28-29.1-41.7-43.9c-9.6-10.3-19-20.6-28.8-30.7c-10.2-10.6-20.2-21.4-30.2-32.2
		c-1.1-1.2-2-2.6-2.9-3.9c-0.4,0.2-0.9,0.5-1.3,0.7c0,1.6,0,3.1,0,4.7c0,34.3-0.1,68.7,0.1,103c0,3.9-1,4.9-4.9,4.9
		c-37.5-0.2-75-0.2-112.5,0c-4.2,0-4.8-1.4-4.8-5c0.1-72.3,0.1-144.7,0-217c0-4.1,1-5.2,5.1-5.2c37.7,0.2,75.3,0.2,113,0
		c3.5,0,5.8,1.2,8.1,3.7c10.2,11.4,20.6,22.6,30.9,34c15.3,16.9,30.5,33.7,46.2,50.2C1275.2,478.2,1283.2,487.7,1292.3,497.8z"/>
	<path class="st0" d="M865.7,378.4c34.5-1,65.7,4,95.8,14.9c18.6,6.8,36,15.9,51.3,28.8c15.3,12.9,26.8,28.2,32.5,47.4
		c3.4,11.5,4.4,23.2,3.2,35.3c-2.5,26.4-15.6,46.7-34.9,63.3c-17.4,14.9-37.9,24.4-59.7,31.1c-16.1,4.9-32.5,8-49.1,10.1
		c-18.3,2.4-36.7,2.2-55.1,1.7c-12.9-0.4-25.7-2.3-38.4-4.6c-16.7-3.1-32.9-7.3-48.5-14c-15.1-6.4-29.2-14.2-41.8-24.9
		c-14.7-12.5-25.5-27.4-31-46c-6.1-21-5.2-41.7,3.4-61.8c9.3-21.6,25.5-37,44.8-49.4c23-14.8,48.6-23,75.2-27.9
		C831.5,379.2,849.7,377.2,865.7,378.4z M868.8,453.2c-5.4,0.4-9.8,0.3-14.2,0.9c-15.3,2-28.6,7.7-38.9,19.4
		c-7.7,8.7-10.3,19.4-7.8,30.3c3.8,17.1,16.3,26.5,32.4,31.5c13.3,4.1,26.9,5.3,40.8,3.1c13.8-2.1,26.5-6.4,36.6-16.8
		c17.1-17.4,12.5-42.1-5.5-55.3C898.9,456.5,883.9,453.2,868.8,453.2z"/>
	<path class="st0" d="M173.4,490.9c8.5,3.3,16.5,6.9,23.5,12.2c12.6,9.6,19.8,21.9,20.5,37.8c0.4,8.3-0.2,16.4-3,24.3
		c-4.7,13.2-13.9,22.4-25.8,28.9c-12.5,6.9-26.1,10.6-40.3,12.3c-10.4,1.2-20.7,1.9-31.1,1.9c-36.3-0.1-72.6-0.1-109,0.1
		c-3.9,0-4.9-0.9-4.9-4.9c0.1-72.5,0.1-145,0-217.4c0-4,1.2-4.9,5-4.8c36.7,0.1,73.3-0.5,110,0.3c21.2,0.4,42.5,2.8,61.4,13.9
		c14.9,8.7,23.4,21.7,25.8,39c1.7,11.9,0.3,23-5,33.8c-5.2,10.5-13.4,17.4-24.3,21.3C175.3,489.7,174.7,490.2,173.4,490.9z
		 M87.4,534.7c0,5.2,0,10.3,0,15.5c0,1.8-0.1,3.2,2.5,3.2c9.9-0.1,19.8,0.5,29.5-2.1c6.2-1.6,11-5.3,13-11.5
		c3.4-10.8-3.4-17.8-11-20.3c-10.3-3.4-21.2-1.7-31.7-3.1c-2.3-0.3-2.2,1.3-2.2,2.9C87.4,524.4,87.4,529.6,87.4,534.7z M96.4,468.3
		c7,0.3,13.6-0.7,19.9-4c5.2-2.7,7-7.8,6.7-12.7c-0.3-4.9-1.7-10.4-7.8-12.4c-8.6-2.8-17.4-3.1-26.2-2.9c-2.4,0.1-1.6,2.2-1.6,3.4
		c-0.1,6.5,0,13,0,19.5C87.3,468.3,87.3,468.3,96.4,468.3z"/>
	<path class="st0" d="M231.3,494.8c0-36.2,0.1-72.3-0.1-108.5c0-4.3,1.2-5.1,5.2-5.1c57.7,0.1,115.3,0.1,173,0c3.8,0,5,0.8,5,4.8
		c-0.2,18-0.2,36,0,54c0,3.6-1.1,4.3-4.5,4.3c-24.7-0.1-49.3,0-74-0.2c-3.6,0-5.1,0.7-4.7,4.6c0.4,4.9-1.6,11.5,0.9,14.5
		c2.6,3.2,9.4,0.9,14.3,1c18.8,0.1,37.7,0.1,56.5,0c3.4,0,4.5,0.8,4.5,4.3c-0.2,17.2-0.2,34.3,0,51.5c0,3.6-1.1,4.3-4.5,4.3
		c-22.3-0.2-44.7,0-67-0.2c-3.7,0-5,0.7-4.7,4.6c0.4,4.1,0.3,8.3,0,12.5c-0.3,3.4,1.1,4.1,4.2,4.1c25.7-0.1,51.3,0,77-0.2
		c3.8,0,5,0.8,5,4.8c-0.2,17.8-0.2,35.7,0,53.5c0.1,4.1-1.2,4.8-5,4.8c-58.7-0.1-117.3-0.1-176,0c-4.1,0-5.2-0.9-5.2-5.1
		C231.4,567.2,231.3,531,231.3,494.8z"/>
	<path class="st0" d="M415.7,381.3c31.1,0,61.1,0,91.1,0c10.5,0,21,0.1,31.5,0c2.7,0,4.4,0.6,5.9,3.2c9.9,17.7,20.1,35.2,30.2,52.8
		c0.7,1.3,1.6,2.8,3.2,2.8c1.5,0,1.9-1.7,2.4-2.9c7.3-17.9,18.3-33.7,27.3-50.6c2-3.7,4.1-5.4,8.6-5.4c38.2,0.2,76.3,0.1,114.5,0.1
		c1.6,0,3.2,0,5.5,0c-3.6,6.4-8.1,11.1-12.1,16.1c-9.5,11.9-19.1,23.6-28.7,35.5c-7.6,9.5-15.3,18.8-23,28.2
		c-9.8,12.1-19.8,23.9-29.3,36.2c-3,3.9-6.2,7.6-9.4,11.3c-1.8,2-2,4-2,6.3c0,29.5,0,59,0.1,88.5c0,3.8-0.7,5-4.8,5
		c-33.2-0.2-66.3-0.2-99.5,0c-4,0-4.9-1.1-4.9-4.9c0.2-28.7,0-57.3,0.2-86c0-4.6-1.2-8.2-4-11.6c-11.9-14.2-23.8-28.4-35.6-42.6
		c-11.8-14.3-23.3-28.7-35.1-43c-8.9-10.8-18-21.3-27-32C419.2,386.4,417.8,384.2,415.7,381.3z"/>
	<path class="st0" d="M1917.5,318.3c-16.4,0-31.3,0.1-46.2-0.1c-4.1,0-5.1-4.5-7.1-6.9c-9.2-10.8-17.8-22-26.6-33.1
		c-17.5,19.8-37.6,35.6-63.2,42.5c-30.3,8.1-59.1,3.8-84.5-15.5c-18.1-13.7-29.3-31.7-32.5-54.4c-3-20.7-0.4-40.3,11.3-57.8
		c7.6-11.4,17.8-20.5,28.9-28.6c8.9-6.5,17.9-13,26.9-19.5c2-1.5,1.6-2.5,0-4.1c-10.2-10.4-18.6-22-24.4-35.3
		c-13.3-30.5-4.9-71.9,31.1-87.2c14.6-6.2,29.7-6.9,45.3-5c12.3,1.5,23.3,6,33,13.3c11.6,8.7,19.4,20.2,22,34.8
		c4.3,23.7-3.1,43.5-19.7,60.3c-9.4,9.5-19.2,18.4-30.4,25.7c-2.3,1.5-1.9,2.4-0.4,4.1c9.8,11.6,19.5,23.4,29.2,35.1
		c8.6,10.5,17.2,21,25.6,31.6c3.9,4.9,4.6,5.3,8.9,0.4c9.5-10.9,18.8-22,28.2-33c1.4-1.7,2.8-3.3,4.6-0.7c5.7,7.9,13.2,14,19.9,20.8
		c2.4,2.5,1.8,4.1,0,6.2c-10.5,12.2-21,24.4-31.5,36.5c-1.9,2.1-2.3,3.4-0.2,6c10.6,12.9,20.6,26.2,31.3,39
		C1903.6,301.1,1909.7,309.4,1917.5,318.3z M1745.8,290.5c6.5-0.4,11.8-1.4,16.9-2.9c17.1-5.2,30.5-16.1,43-28.2
		c9.6-9.2,9.1-9.1,0.3-19c-8.9-10-17.1-20.7-25.6-31c-9.6-11.8-19.3-23.5-28.9-35.4c-2-2.5-3.5-2.2-6-0.4c-6.6,4.8-13.5,9-20,13.9
		c-9.8,7.4-19.5,15-26.2,25.6c-4.6,7.2-8.2,15.2-7.7,23.8c0.7,11.6,5.2,21.8,12.6,31.1C1715.2,281.8,1729.5,288.7,1745.8,290.5z
		 M1763.4,42.2c-10.3-0.3-19.3,3.4-25.8,10.9c-9.7,11.2-10.3,24.1-3.7,37.2c5.8,11.6,15,20.8,22.5,31.3c0.9,1.3,1.6,0.6,2.4,0
		c11.4-8.5,23.7-16.1,31.9-28.1c8.2-12.2,8.9-24.6,1-37.3C1785.1,45.8,1774.7,43,1763.4,42.2z"/>
	<path class="st0" d="M393.3,167.8c0-48.1,0.1-96.3-0.1-144.4c0-4.2,1.1-5.2,5.2-5.1c22.7,0.2,45.3-0.5,68,0.3
		c25.2,0.9,49.7,5.7,73.1,15.8c18.1,7.8,34.3,18.3,47.8,32.6c17.4,18.5,27.9,40.5,33.2,65.3c3.7,17.1,3.8,34.3,2.5,51.3
		c-2.2,29.2-11.4,56.2-30.5,79.2c-18.8,22.6-42.8,36.9-70.5,45.5c-13.1,4.1-26.4,6.6-40.1,8.1c-28.2,3.1-56.4,1.3-84.6,2
		c-4,0.1-4.1-1.7-4.1-4.7C393.4,265.1,393.3,216.4,393.3,167.8z M431.3,168.3c0,36.8,0.1,73.7-0.1,110.5c0,3.7,0.9,4.8,4.7,4.7
		c8.3-0.3,16.5-0.5,24.8-0.9c7.9-0.4,15.8-1,23.5-2.4c17.5-3,34.5-7.9,50.1-16.7c12.6-7.1,23.5-16.2,31.9-27.9
		c11.7-16.2,17.4-34.9,18.9-54.5c1.1-14.6,0.8-29.4-2.8-43.8c-6.1-24.9-18.7-45.2-40.3-59.5c-21.9-14.5-46.6-20.3-72.2-23.2
		c-10.7-1.2-21.5-0.7-32.3-1.1c-4.8-0.2-6.4,0.8-6.3,6.1C431.5,95.6,431.3,131.9,431.3,168.3z"/>
	<path class="st0" d="M843,158.1c10.3,1.5,19.4,5.9,27.5,12c16.9,12.7,27,29.9,30.7,50.6c3.1,17.2,0.9,34.1-6.6,49.8
		c-6.8,14.2-17.7,25.1-31.7,32.6c-17,9.1-35.1,13.3-54.3,14.4c-25.6,1.5-51.2,0.1-76.8,0.9c-3.9,0.1-4.6-1.1-4.6-4.7
		c0.1-96.8,0.1-193.6,0-290.4c0-3.7,0.6-5.1,4.8-5c15.3,0.3,30.7-0.5,46,0.3c19.7,1,39.5,3.4,57.3,12.5c19.8,10,32.7,25.9,37.1,48.2
		c1.5,7.5,2.1,15,1.9,22.6C873.6,125.9,864.1,145.1,843,158.1z M766.4,232.1c0,15.8,0,31.6,0,47.4c0,1.6-0.8,3.8,2.4,3.8
		c18.8-0.6,37.7,1.9,56.2-3.1c12.7-3.4,24.2-9.2,31.6-20.8c4.3-6.6,5.9-14.1,7-22c2-14.5-1.8-26.9-11.8-37.1
		c-12.1-12.3-28.1-15.7-44.4-18c-12.2-1.7-24.5-0.8-36.7-1.1c-3.6-0.1-4.4,1-4.3,4.5C766.5,201.2,766.4,216.7,766.4,232.1z
		 M766.4,100.8c0,15.1,0.1,30.3-0.1,45.4c0,3.2,0.8,4.2,4.1,4.2c10.5-0.2,21.1,0.4,31.5-2c10.8-2.5,20.8-6.1,27.8-15.6
		c10.5-14.5,10.3-30.7,7.2-47c-3.1-16.3-14-25.5-29.9-29.6c-12.1-3.1-24.3-3.7-36.6-3.9c-3.3,0-4.2,0.9-4.1,4.1
		C766.5,71.2,766.4,86,766.4,100.8z"/>
	<path class="st0" d="M117.8,157.8c28.8,7,47.2,25.2,55.3,52.8c8.9,30.3,3.7,58.3-19.7,81c-12.7,12.3-28.6,19-45.7,22.6
		c-8.2,1.7-16.4,2.6-24.8,3.2c-25.1,1.7-50.2,0.1-75.3,0.9c-4.7,0.2-5.3-1.4-5.3-5.5c0.1-96.5,0.1-193,0-289.5
		c0-4.1,0.8-5.3,5.1-5.2c15.2,0.3,30.4-0.6,45.5,0.3c20.3,1.2,40.5,3.7,59,13.6c19.8,10.5,31.4,26.6,35.5,48.5
		c3.1,16.5,2.7,32.5-4.1,48.1C138,141.2,129.8,151.2,117.8,157.8z M62.7,283.3c4.8,0,9.7,0.1,14.5,0c13-0.3,25.5-3,37.2-8.9
		c20.8-10.5,26.8-32.2,23.2-52.4c-3.7-20.7-18.5-30-36.9-35.7c-18.8-5.9-38.1-4.8-57.4-5c-2.6,0-2.9,1.1-2.9,3.3
		c0.1,31.8,0.1,63.7,0,95.5c0,2.6,0.8,3.4,3.4,3.4C50,283.2,56.3,283.3,62.7,283.3z M40.3,100.8c0,15.2,0,30.3,0,45.5
		c0,1.8-0.9,4.1,2.6,4.1c14.6-0.1,29.2,0.5,43.3-4.9c11.9-4.5,20-12.1,24.1-24.1c3.8-11.2,4.1-22.7,1.7-34
		c-3.1-14.9-11.8-25.3-26.8-30.1c-13.2-4.3-26.7-4.7-40.4-4.9c-3.6-0.1-4.8,0.7-4.7,4.6C40.5,71.5,40.3,86.2,40.3,100.8z"/>
	<path class="st0" d="M1559.3,168.6c0,48.2-0.1,96.3,0.1,144.5c0,4.6-1.3,5.5-5.5,5.3c-9.2-0.3-18.3-0.3-27.5,0
		c-4.1,0.1-5.2-0.9-5.2-5.1c0.2-44.5,0-89,0.2-133.5c0-4.7-1.3-5.6-5.7-5.6c-43.3,0.2-86.7,0.2-130,0c-4.2,0-5.5,0.8-5.5,5.3
		c0.2,44.5,0,89,0.2,133.5c0,4.6-1.3,5.5-5.5,5.4c-9.8-0.3-19.7-0.2-29.5,0c-3.3,0.1-4.2-0.8-4.2-4.1c0.1-21.5,0.1-43,0.1-64.5
		c0-75.2,0.1-150.3-0.1-225.5c0-5.3,1.5-6.3,6.3-6.1c9.3,0.4,18.7,0.3,28,0c3.9-0.1,5,0.9,4.9,4.9c-0.2,36.5,0,73-0.2,109.5
		c0,4.3,0.7,5.9,5.5,5.8c43.5-0.2,87-0.2,130.5,0c4.1,0,5.2-1,5.2-5.1c-0.2-36.5,0-73-0.2-109.5c0-4.8,1.4-5.7,5.8-5.6
		c9.2,0.3,18.3,0.3,27.5,0c3.9-0.1,5,0.9,4.9,4.9C1559.3,71.6,1559.3,120.1,1559.3,168.6z"/>
	<path class="st0" d="M898.8,318.3c5.4-11.8,10.4-22.8,15.5-33.9c12.2-26.7,24.4-53.5,36.6-80.2c6.1-13.3,12.3-26.5,18.4-39.8
		c13.1-28.6,26.2-57.3,39.4-85.9c7.2-15.6,14.4-31.3,21.6-46.9c4-8.7,7.8-17.4,12.2-27.1c5.1,10.4,9.3,19.9,13.6,29.3
		c4.4,9.6,8.7,19.2,13.1,28.7c11.8,26,24.1,51.8,35.8,77.9c6.9,15.4,14,30.7,21,46.1c11.3,24.8,22.4,49.7,33.7,74.5
		c6.5,14.3,13.2,28.6,19.9,42.9c1.7,3.7,3.2,7.5,5.1,11.1c1.3,2.4,0.8,3.3-1.9,3.3c-12,0-24-0.1-36,0c-3.1,0-3.2-2.5-4-4.2
		c-9.2-20.2-18.8-40.3-27.2-60.9c-3.4-8.4-7.9-10.3-16.6-10.2c-39.8,0.6-79.6,0.3-119.4,0.1c-4.1,0-6.1,1.3-7.7,5
		c-9.8,22-19.8,43.8-29.6,65.7c-1.5,3.4-3.5,4.7-7.4,4.5C923.2,318.1,911.5,318.3,898.8,318.3z M1094.8,208.2
		c-17.6-39.9-34.8-79-52.4-118.9c-17.7,40.3-35,79.4-52.3,118.9C1025.1,208.2,1059.6,208.2,1094.8,208.2z"/>
	<path class="st0" d="M197.3,168.4c0-48.3,0.1-96.7-0.1-145c0-4.1,0.9-5.2,5.1-5.2c50.7,0.2,101.3,0.2,152,0c4.3,0,5.2,1.2,5.1,5.3
		c-0.3,8.3-0.3,16.7,0,25c0.1,3.8-0.9,5-4.9,5c-37.5-0.2-75,0-112.5-0.2c-5,0-5.9,1.3-5.9,6c0.3,24,0.2,48,0,72
		c0,4.1,0.9,5.2,5.1,5.2c36.3-0.2,72.7,0,109-0.2c4.3,0,5.3,1.1,5.1,5.2c-0.3,8.3-0.3,16.7,0,25c0.1,3.8-0.8,5-4.8,5
		c-36.2-0.2-72.3,0-108.5-0.2c-4.9,0-5.9,1.3-5.9,6c0.2,33.7,0.2,67.3,0,101c0,4,0.8,5.3,5.1,5.3c37.7-0.2,75.3,0,113-0.2
		c4.2,0,5.3,1.1,5.1,5.2c-0.3,8.7-0.2,17.3,0,26c0.1,2.9-0.5,4-3.8,4c-51.5-0.1-103-0.1-154.5,0c-4.3,0-3.8-2.3-3.8-5
		C197.3,265.1,197.3,216.8,197.3,168.4z"/>
	<path class="st0" d="M1213.3,185.6c0-42.5-0.1-85,0.1-127.5c0-4-1.2-4.9-5-4.8c-20.5,0.2-41,0-61.5,0.2c-3.6,0-4.9-0.7-4.7-4.6
		c0.3-8.8,0.3-17.7,0-26.5c-0.1-3.4,1-4.1,4.2-4.1c57.3,0.1,114.7,0.1,172,0c3,0,4,0.6,4,3.8c-0.2,9.2-0.2,18.3,0,27.5
		c0.1,3.2-1,3.8-4,3.8c-20.5-0.1-41,0.1-61.5-0.2c-4.4-0.1-5.7,0.9-5.7,5.6c0.2,84.5,0.1,169,0.3,253.5c0,5.2-1.4,6.4-6.3,6.1
		c-9-0.4-18-0.3-27,0c-3.8,0.1-5-0.8-5-4.8C1213.4,270.9,1213.3,228.2,1213.3,185.6z"/>
</g>
</svg>
