<?xml version="1.0" encoding="utf-8"?>
<!-- Generator: Adobe Illustrator 22.1.0, SVG Export Plug-In . SVG Version: 6.00 Build 0)  -->
<svg version="1.1" id="Layer_4" xmlns="http://www.w3.org/2000/svg" xmlns:xlink="http://www.w3.org/1999/xlink" x="0px" y="0px"
	 viewBox="0 0 833 240.9" enable-background="new 0 0 833 240.9" xml:space="preserve">
<g>
	<path d="M0,167.3h11.4l35.8,58v-58h9.3V239H45.6L9.3,181.1V239H0V167.3z"/>
	<path d="M69.7,167.3h52.1v8.8H79.2v21.8h39.4v8.3H79.2v24.3h43.3v8.5H69.7V167.3z"/>
	<path d="M136.9,167.3l13.5,58.3l16.2-58.3h10.5l16.2,58.4l13.5-58.4h10.7L198.7,239h-10.2l-16.6-59.5L155.3,239h-10.2l-18.8-71.7
		H136.9z"/>
	<path d="M223.1,167.3h9.7v63.2h36v8.5h-45.7V167.3z"/>
	<path d="M262.4,167.3h11.3l20.6,34.5l20.6-34.5h11.4l-27.2,42.8V239h-9.7v-28.9L262.4,167.3z"/>
	<path d="M336,167.3l13.5,58.3l16.2-58.3h10.5l16.2,58.4l13.5-58.4h10.7L397.8,239h-10.2l-16.6-59.5L354.4,239h-10.2l-18.8-71.7H336
		z"/>
	<path d="M423.2,167.3h52.1v8.8h-42.6v21.8H472v8.3h-39.4v24.3h43.3v8.5h-52.8V167.3z"/>
	<path d="M486,167.3h28.7c9.7,0,17.3,3.5,22.6,10.5c4.8,6.3,7.2,14.4,7.2,24.3c0,7.6-1.4,14.5-4.2,20.7c-5,10.9-13.5,16.3-25.7,16.3
		H486V167.3z M512.7,230.7c3.2,0,5.9-0.3,7.9-1c3.7-1.3,6.7-3.7,9.1-7.3c1.9-2.9,3.2-6.6,4.1-11.1c0.5-2.7,0.7-5.2,0.7-7.5
		c0-8.9-1.7-15.8-5.2-20.7c-3.5-4.9-9-7.4-16.7-7.4h-16.9v55.1H512.7z"/>
	<path d="M579.7,167.3h49.8v8.8h-40v21.8h35.2v8.5h-35.2V239h-9.7V167.3z"/>
	<path d="M646.9,167.3v44.3c0,5.2,1,9.5,3,13c2.9,5.2,7.8,7.8,14.8,7.8c8.3,0,13.9-2.8,16.9-8.4c1.6-3.1,2.4-7.2,2.4-12.4v-44.3h9.8
		v40.3c0,8.8-1.2,15.6-3.6,20.4c-4.4,8.7-12.6,13-24.8,13c-12.2,0-20.4-4.3-24.7-13c-2.4-4.8-3.6-11.5-3.6-20.4v-40.3H646.9z"/>
	<path d="M705.2,167.3h11.4l35.8,58v-58h9.3V239h-10.9l-36.3-57.9V239h-9.3V167.3z"/>
	<path d="M774.5,167.3h28.7c9.7,0,17.3,3.5,22.6,10.5c4.8,6.3,7.2,14.4,7.2,24.3c0,7.6-1.4,14.5-4.2,20.7
		c-5,10.9-13.5,16.3-25.7,16.3h-28.6V167.3z M801.2,230.7c3.2,0,5.9-0.3,7.9-1c3.7-1.3,6.7-3.7,9.1-7.3c1.9-2.9,3.2-6.6,4.1-11.1
		c0.5-2.7,0.7-5.2,0.7-7.5c0-8.9-1.7-15.8-5.2-20.7c-3.5-4.9-9-7.4-16.7-7.4h-16.9v55.1H801.2z"/>
</g>
<g>
	<path fill="#548DC0" d="M555.7,80.5c9.1-1.8,13.4,0.6,16.6,9.1c1.6,4.3,2,8.7,1.9,13.2c0,0.9-0.5,2.1,0.5,2.8
		c1.2,0.8,2.2-0.2,3.2-0.8c2.7-1.8,4.6-4.4,6-7.2c5.3-11.3,7.6-23.3,9.3-35.5c0.5-3.2-1.2-3.1-3.5-2.8c-7.2,1.1-14.5,2.1-21.7,3
		c-4.1,0.5-7.6-3.3-6.9-7.4c0.4-2.1,2-2,3.4-2.1c7.9-0.9,15.8-2.1,23.8-2.7c4.7-0.4,7.3-1.8,7.2-7.1c-0.1-4.3,0.9-8.6,1.4-12.9
		c0.3-3.1,1.4-3.9,4.6-2.4c5.2,2.4,5.5,6.4,4.7,11.2c-1.5,9-1.3,9.2,7.4,8c7.4-1,14.8-2.3,22.1-3.6c2.2-0.4,4.2-0.7,5.6,1.6
		c0,1.3,0,2.7,0,4c-1.3,2.7-3.9,3.4-6.5,3.8c-9,1.4-18.1,3-27.1,4c-3.4,0.4-4.3,1.6-4.7,4.8c-2.2,17.3-4.3,34.7-3.6,52.2
		c0.1,3.6,0.5,7.3,1.4,10.9c1.5,6.1,5.5,7.9,11.4,5.5c6.1-2.6,10.2-7.3,14-12.4c1-1.4,1-5.5,3.8-3.5c2.3,1.6,4.2,5,2.4,8.4
		c-2.1,3.9-4.9,7.1-8.2,10c-5.6,4.7-11.7,8.4-19.3,7.8c-7.5-0.6-11.5-5.3-13.5-12.1c-1.8-6.3-2.1-12.8-1.9-20.6
		c-4.9,4.7-9.8,7-15.7,6.6c-1.6-0.1-1.4,1.6-1.8,2.6c-0.8,2.2-1.5,4.4-2.5,6.5c-7.3,14.8-26,16.2-35.5,2.6c-0.8-1.2-1.5-2.4-2.4-3.8
		c-2.1,3-3.7,6-5.8,8.4c-5.7,6.5-12.8,5.1-15.7-3c-3.1-8.3-2.6-17-2.3-25.7c0.2-4.5,0.5-9,0.6-13.5c0-1.4,0.8-3.4-1-3.9
		c-1.4-0.4-2.1,1.4-2.9,2.4c-8.5,10.5-13.3,22.9-18.2,35.4c-1.9,5-3.8,9.9-5.7,14.9c-1.2,3.1-3.2,4.6-6.6,3.6
		c-3.5-1.1-2.6-3.6-2-6.1c0.8-3.7,1.6-7.4,2-11.4c-6.3,8.2-13.7,13.2-24.5,11c-10.5-2.2-14.7-11.1-20.9-19.7
		c-0.6,7.7-1.3,14.2-1.5,20.7c-0.1,4.5-2.3,5.8-6.3,5.5c-4.1-0.3-4.4-2.4-4-6.1c1.8-15.8,3.1-31.7,3.8-47.9
		c-1.3,1.8-2.8,3.6-3.8,5.5c-1.5,2.7-3.2,3.6-6,1.7c-2.5-1.8-3.7-3.9-1.6-6.7c2.4-3.2,4.5-6.6,7.2-9.6c5.1-5.9,6.4-12.7,6.9-20.2
		c0.9-13.6,2.1-27.2,4.9-40.6c1.4-6.6,4.1-12.6,10-16.6c2.3,0,4.7,0,7,0c6.1,6,5.6,13.6,4.5,21c-2.3,15.6-7.7,30.3-15,44.2
		c-3.2,6.1-3.4,12.4-3.6,18.8c-0.1,2.5-2.3,6,0.1,7.4c1.9,1.1,4.6-1.8,6.9-3.1c7.9-4.7,15-10.5,20.6-17.9c1.5-1.9,2.8-5.4,6.1-2.3
		c2.6,2.5,4.5,5.2,1.2,9c-6.9,7.6-14.7,14-23.5,19.2c-0.7,0.4-1.4,0.8-2.2,1.2c-7.6,4.2-7.6,4.2-3.5,11.7c2.2,4.1,4.6,8.1,8.2,11.3
		c6.2,5.7,12,5.7,18-0.1c6-5.9,9.4-13.3,12.2-21c2.1-6.1,3.9-12.4,5.5-18.6c0.8-3.3,2.6-4.4,5.7-3.8c3.2,0.6,4,2.6,3.2,5.5
		c-0.2,1-0.3,2-0.4,3c-0.1,1.5-2.2,3.4,0,4.2c1.9,0.7,2.3-1.9,3.2-3.2c2.6-3.7,5.3-7.3,9.1-9.9c7.1-5.1,13.4-2.4,14.8,6.2
		c1.7,10.3-0.2,20.6,0,30.9c0,2.7-0.1,5.3,0.6,7.9c0.3,1.2,0.2,2.9,1.9,3.1c1.5,0.2,2.3-1.1,3.1-2.2c2.9-4.1,4.7-8.8,6.3-13.5
		c2-5.7,3.6-11.4,5.8-17c2.8-6.7,7.1-12.4,12.9-16.9c1.9-1.4,3.9-3.9,6.6-2.1c2.4,1.6,2.1,4.3,1.5,6.8c-0.3,0-0.6,0.2-0.8,0.4
		c-11.2,6.9-17.7,22.4-14.7,35.1c1.3,5.8,5.5,10.1,10.4,10.8c5.4,0.8,9.4-1.7,12.7-7.6c2.2-4,3.1-6.7-1.9-9.9
		c-8.9-5.7-13.6-19.9-5.7-27.6C555.4,80.9,555.6,80.8,555.7,80.5z M443.2,14.5c-0.2-2,0.7-4.7-1.7-5.3c-2.6-0.6-2.8,2.3-3.5,4
		c-0.6,1.4-1,2.8-1.3,4.3c-1.6,10-3,20-4.5,30c-0.1,0.8-0.3,1.9,0.6,2.2c1.6,0.5,1.8-1,2.2-2C439.5,37,442,25.8,443.2,14.5z
		 M567.1,104.8c0.2-5.5,0.8-10.3-1.1-14.8c-0.9-2.1-2.4-4.4-5.2-3.7c-2.9,0.7-2.9,3.3-2.5,5.7C559,97.5,561.9,101.4,567.1,104.8z"/>
	<path fill="#558DC0" d="M206.2,54c14.3-0.6,28.6-1.3,42.9-1.7c3.4-0.1,4.6-1.4,5-4.5c0.5-4.8,1.3-9.5,2.1-14.3
		c0.3-1.7-0.1-4.2,2.7-3.8c2.6,0.3,5.6,1.1,5.4,4.7c-0.3,4-0.9,7.9-1.8,11.8c-0.8,3.6-0.5,5.8,4.2,5.1c5.1-0.8,10.3-1,15.4-1.6
		c2.1-0.2,4.7-1.5,5.1,1.8c0.4,3,0.3,6.4-3.9,6.8c-6.1,0.7-12.3,1.3-18.4,1.5c-3.4,0.1-4.4,1.3-4.8,4.6c-1.6,14.4-3.8,28.7-3.8,43.2
		c0,5.3,0.4,11.2,5.9,13.2c5.3,1.9,8.8-3,11.9-6.6c7.1-8,10.6-17.4,11.1-28.2c0.8-16.8,2.9-33.5,7.1-49.8c1.3-5,2.8-9.9,5.4-14.4
		c1.8-3.1,4.3-5.2,8.1-4.7c4,0.5,6.6,2.7,7.8,6.7c2.5,8.8,1,17.5-0.7,26.2c-3,15.7-8.5,30.4-17.6,43.7c-2.9,4.3-1.5,8.8-2.1,14.5
		c3.7-7.8,6.8-14.5,10.2-21.1c2.3-4.5,5.1-8.6,8.9-11.9c2.7-2.3,5.7-3.8,9.2-2.2c3.3,1.6,3.8,4.8,3.8,8.1c-0.1,11.2-0.8,22.3,0,33.5
		c0.5,6.7,2.8,8.6,8.3,7.6c2.7-0.5,3.4-1.5,2.8-4.3c-2.3-10.2-1.3-20.2,2.1-30c1.8-5.3,4.5-10,9-13.6c6.7-5.3,13.9-3.9,17.7,4
		c4,8.3,3.1,16.8,0.3,25.2c-2.5,7.4-6.9,13.7-12.9,18.6c-3.3,2.7-2.2,4.2,0.6,5.9c4.5,2.8,8.3,2.5,12.3-1.1
		c5.5-4.9,8.5-11.4,11.2-18.1c0.7-1.8,1.1-4.9,4.2-3.6c2.6,1.1,1.2,3.4,0.7,5.2c-1.8,6.4-4,12.7-7.6,18.4
		c-7.4,11.9-20.1,13.7-30.3,4c-2.6-2.5-4.5-2.8-7.7-1.5c-9,3.6-15.6,0.1-18.5-9.3c-1.9-6.4-1-12.9-1.1-19.4c-0.1-6.7,0-13.5,0-20.7
		c-3,2.1-4.5,5.2-6.1,8.2c-7.3,13.9-12.7,28.6-17.4,43.5c-0.8,2.5-1.8,4.2-4.6,4.3c-3.2,0.2-5.1-0.8-4.8-4.5
		c0.4-6.1,0.7-12.3,1-19.2c-2.8,3.5-4.9,6.6-7.4,9.4c-4.5,5.1-10.2,7.8-16.9,6c-6.8-1.9-10-7.4-11.6-13.8c-0.4-1.4-0.3-3-1.4-4.3
		c-6.1,12.1-10.8,25-24.6,30.6c-2.7,0-5.3,0-8,0c-3-1.8-3.5-3.5,0.1-5.3c8.1-4.1,14.2-10.3,18.7-18.2c9.7-17,14-35.8,18.1-54.6
		c0.6-2.9-1-2.9-3.1-2.7c-8.8,0.9-17.5,1.4-26.3,2.6c-6.7,0.9-12.5,0.6-15.5-6.7C206.2,56,206.2,55,206.2,54z M345.3,115.6
		c9.3-7.4,14.4-21,12.3-31.4c-0.3-1.5,0.2-3.7-2-4.1c-1.9-0.3-2.9,1.3-3.9,2.6C345,92.5,343.8,103.3,345.3,115.6z M294.6,77.2
		c7.4-15.1,12.5-30.8,12.7-47.7c0-1.6,0.4-3.7-1.7-4.1c-1.5-0.3-2,1.3-2.5,2.6C297.8,44.1,295.9,60.6,294.6,77.2z"/>
</g>
</svg>
