<?xml version="1.0" encoding="utf-8"?>
<!-- Generator: Adobe Illustrator 22.1.0, SVG Export Plug-In . SVG Version: 6.00 Build 0)  -->
<svg version="1.1" id="Layer_4" xmlns="http://www.w3.org/2000/svg" xmlns:xlink="http://www.w3.org/1999/xlink" x="0px" y="0px"
	 viewBox="0 0 964.1 242.8" enable-background="new 0 0 964.1 242.8" xml:space="preserve">
<g id="Layer_2">
	<g>
		<path fill="#FFFFFF" d="M10.5,169l13.5,58.3L40.3,169h10.5L67,227.4L80.6,169h10.7l-18.8,71.7H62.2l-16.6-59.5L29,240.7H18.8
			L0,169H10.5z"/>
		<path fill="#FFFFFF" d="M97.5,169h52.1v8.8H107v21.8h39.4v8.3H107v24.3h43.3v8.5H97.5V169z"/>
		<path fill="#FFFFFF" d="M160.1,169h28.7c9.7,0,17.3,3.5,22.6,10.5c4.8,6.3,7.2,14.4,7.2,24.3c0,7.6-1.4,14.5-4.2,20.7
			c-5,10.9-13.5,16.3-25.7,16.3h-28.6V169z M186.9,232.4c3.2,0,5.9-0.3,7.9-1c3.7-1.3,6.7-3.7,9.1-7.3c1.9-2.9,3.2-6.6,4.1-11.1
			c0.5-2.7,0.7-5.2,0.7-7.5c0-8.9-1.7-15.8-5.2-20.7c-3.5-4.9-9-7.4-16.7-7.4h-16.9v55.1H186.9z"/>
		<path fill="#FFFFFF" d="M228.7,169h28.7c9.7,0,17.3,3.5,22.6,10.5c4.8,6.3,7.2,14.4,7.2,24.3c0,7.6-1.4,14.5-4.2,20.7
			c-5,10.9-13.5,16.3-25.7,16.3h-28.6V169z M255.5,232.4c3.2,0,5.9-0.3,7.9-1c3.7-1.3,6.7-3.7,9.1-7.3c1.9-2.9,3.2-6.6,4.1-11.1
			c0.5-2.7,0.7-5.2,0.7-7.5c0-8.9-1.7-15.8-5.2-20.7c-3.5-4.9-9-7.4-16.7-7.4h-16.9v55.1H255.5z"/>
		<path fill="#FFFFFF" d="M299.1,169h9.8v71.7h-9.8V169z"/>
		<path fill="#FFFFFF" d="M321.1,169h11.4l35.8,58v-58h9.3v71.7h-10.9l-36.3-57.9v57.9h-9.3V169z"/>
		<path fill="#FFFFFF" d="M437.5,171c7,3.7,11.3,10.3,12.9,19.7h-9.6c-1.1-5.2-3.5-9.1-7.1-11.5s-8.1-3.6-13.6-3.6
			c-6.5,0-12,2.5-16.4,7.5c-4.4,5-6.7,12.4-6.7,22.3c0,8.5,1.8,15.5,5.5,20.8c3.7,5.4,9.6,8,17.9,8c6.3,0,11.6-1.9,15.8-5.6
			s6.3-9.8,6.4-18.2H420v-8.1h31.5v38.4h-6.2l-2.3-9.2c-3.2,3.6-6.1,6.1-8.6,7.5c-4.2,2.4-9.5,3.6-16,3.6c-8.4,0-15.5-2.8-21.6-8.3
			c-6.6-6.9-9.8-16.4-9.8-28.4c0-12,3.2-21.6,9.6-28.7c6.1-6.8,14-10.2,23.7-10.2C426.9,167.1,432.6,168.4,437.5,171z"/>
		<path fill="#FFFFFF" d="M489.2,169h32.6c5.4,0,9.8,0.8,13.3,2.4c6.6,3.1,9.9,8.7,9.9,16.9c0,4.3-0.9,7.8-2.7,10.5
			c-1.8,2.7-4.3,4.9-7.4,6.6c2.8,1.1,4.9,2.6,6.3,4.5s2.2,4.9,2.4,9l0.3,9.6c0.1,2.7,0.3,4.8,0.7,6.1c0.6,2.3,1.6,3.7,3.1,4.4v1.6
			h-11.9c-0.3-0.6-0.6-1.4-0.8-2.4s-0.4-2.9-0.5-5.7l-0.6-12c-0.2-4.7-1.9-7.8-5.1-9.4c-1.8-0.9-4.6-1.3-8.5-1.3H499v30.8h-9.7V169z
			 M520.8,201.8c4.4,0,7.9-0.9,10.5-2.7c2.6-1.8,3.9-5.1,3.9-9.9c0-5.1-1.8-8.6-5.4-10.4c-1.9-1-4.5-1.5-7.7-1.5H499v24.5H520.8z"/>
		<path fill="#FFFFFF" d="M557.6,169h52.1v8.8h-42.6v21.8h39.4v8.3h-39.4v24.3h43.3v8.5h-52.8V169z"/>
		<path fill="#FFFFFF" d="M667.5,171c7,3.7,11.3,10.3,12.9,19.7h-9.6c-1.1-5.2-3.5-9.1-7.1-11.5s-8.1-3.6-13.6-3.6
			c-6.5,0-12,2.5-16.4,7.5c-4.4,5-6.7,12.4-6.7,22.3c0,8.5,1.8,15.5,5.5,20.8c3.7,5.4,9.6,8,17.9,8c6.3,0,11.6-1.9,15.8-5.6
			s6.3-9.8,6.4-18.2h-22.5v-8.1h31.5v38.4h-6.2l-2.3-9.2c-3.2,3.6-6.1,6.1-8.6,7.5c-4.2,2.4-9.5,3.6-16,3.6
			c-8.4,0-15.5-2.8-21.6-8.3c-6.6-6.9-9.8-16.4-9.8-28.4c0-12,3.2-21.6,9.6-28.7c6.1-6.8,14-10.2,23.7-10.2
			C656.9,167.1,662.7,168.4,667.5,171z"/>
		<path fill="#FFFFFF" d="M696.2,169h9.8v71.7h-9.8V169z"/>
		<path fill="#FFFFFF" d="M724.5,217.6c0.2,4.1,1.1,7.4,2.8,9.9c3.1,4.8,8.6,7.1,16.4,7.1c3.5,0,6.7-0.5,9.6-1.6
			c5.6-2,8.4-5.6,8.4-10.8c0-3.9-1.2-6.7-3.5-8.3c-2.4-1.6-6.1-3-11.3-4.2l-9.4-2.2c-6.1-1.4-10.5-3-13.1-4.7
			c-4.4-3-6.6-7.5-6.6-13.4c0-6.4,2.2-11.7,6.5-15.9c4.3-4.1,10.5-6.2,18.4-6.2c7.3,0,13.5,1.8,18.6,5.4c5.1,3.6,7.7,9.4,7.7,17.4
			h-9.1c-0.5-3.8-1.5-6.8-3-8.8c-2.8-3.7-7.7-5.6-14.5-5.6c-5.5,0-9.4,1.2-11.8,3.6c-2.4,2.4-3.6,5.2-3.6,8.4c0,3.5,1.4,6.1,4.3,7.7
			c1.9,1,6.1,2.3,12.6,3.9l9.7,2.3c4.7,1.1,8.3,2.6,10.9,4.5c4.4,3.4,6.6,8.2,6.6,14.6c0,7.9-2.8,13.6-8.5,17
			c-5.6,3.4-12.2,5.1-19.6,5.1c-8.7,0-15.5-2.3-20.4-6.8c-4.9-4.5-7.3-10.7-7.2-18.4H724.5z"/>
		<path fill="#FFFFFF" d="M833.4,169v8.5h-24.2v63.2h-9.8v-63.2h-24.2V169H833.4z"/>
		<path fill="#FFFFFF" d="M839.9,169h32.6c5.4,0,9.8,0.8,13.3,2.4c6.6,3.1,9.9,8.7,9.9,16.9c0,4.3-0.9,7.8-2.7,10.5
			c-1.8,2.7-4.3,4.9-7.4,6.6c2.8,1.1,4.9,2.6,6.3,4.5s2.2,4.9,2.4,9l0.3,9.6c0.1,2.7,0.3,4.8,0.7,6.1c0.6,2.3,1.6,3.7,3.1,4.4v1.6
			h-11.9c-0.3-0.6-0.6-1.4-0.8-2.4s-0.4-2.9-0.5-5.7l-0.6-12c-0.2-4.7-1.9-7.8-5.1-9.4c-1.8-0.9-4.6-1.3-8.5-1.3h-21.5v30.8h-9.7
			V169z M871.5,201.8c4.4,0,7.9-0.9,10.5-2.7c2.6-1.8,3.9-5.1,3.9-9.9c0-5.1-1.8-8.6-5.4-10.4c-1.9-1-4.5-1.5-7.7-1.5h-23.1v24.5
			H871.5z"/>
		<path fill="#FFFFFF" d="M900.1,169h11.3l20.6,34.5l20.6-34.5h11.4l-27.2,42.8v28.9h-9.7v-28.9L900.1,169z"/>
	</g>
</g>
<g>
	<path fill="#FFFFFF" d="M613.1,80.2c9.1-1.8,13.4,0.6,16.6,9.1c1.6,4.3,2,8.7,1.9,13.2c0,0.9-0.5,2.1,0.5,2.8
		c1.2,0.8,2.2-0.2,3.2-0.8c2.7-1.8,4.6-4.4,6-7.2c5.3-11.3,7.6-23.3,9.3-35.5c0.5-3.2-1.2-3.1-3.5-2.8c-7.2,1.1-14.5,2.1-21.7,3
		c-4.1,0.5-7.6-3.3-6.9-7.4c0.4-2.1,2-2,3.4-2.1c7.9-0.9,15.8-2.1,23.8-2.7c4.7-0.4,7.3-1.8,7.2-7.1c-0.1-4.3,0.9-8.6,1.4-12.9
		c0.3-3.1,1.4-3.9,4.6-2.4c5.2,2.4,5.5,6.4,4.7,11.2c-1.5,9-1.3,9.2,7.4,8c7.4-1,14.8-2.3,22.1-3.6c2.2-0.4,4.2-0.7,5.6,1.6
		c0,1.3,0,2.7,0,4c-1.3,2.7-3.9,3.4-6.5,3.8c-9,1.4-18.1,3-27.1,4c-3.4,0.4-4.3,1.6-4.7,4.8c-2.2,17.3-4.3,34.7-3.6,52.2
		c0.1,3.6,0.5,7.3,1.4,10.9c1.5,6.1,5.5,7.9,11.4,5.5c6.1-2.6,10.2-7.3,14-12.4c1-1.4,1-5.5,3.8-3.5c2.3,1.6,4.2,5,2.4,8.4
		c-2.1,3.9-4.9,7.1-8.2,10c-5.6,4.7-11.7,8.4-19.3,7.8c-7.5-0.6-11.5-5.3-13.5-12.1c-1.8-6.3-2.1-12.8-1.9-20.6
		c-4.9,4.7-9.8,7-15.7,6.6c-1.6-0.1-1.4,1.6-1.8,2.6c-0.8,2.2-1.5,4.4-2.5,6.5c-7.3,14.8-26,16.2-35.5,2.6c-0.8-1.2-1.5-2.4-2.4-3.8
		c-2.1,3-3.7,6-5.8,8.4c-5.7,6.5-12.8,5.1-15.7-3c-3.1-8.3-2.6-17-2.3-25.7c0.2-4.5,0.5-9,0.6-13.5c0-1.4,0.8-3.4-1-3.9
		c-1.4-0.4-2.1,1.4-2.9,2.4c-8.5,10.5-13.3,22.9-18.2,35.4c-1.9,5-3.8,9.9-5.7,14.9c-1.2,3.1-3.2,4.6-6.6,3.6
		c-3.5-1.1-2.6-3.6-2-6.1c0.8-3.7,1.6-7.4,2-11.4c-6.3,8.2-13.7,13.2-24.5,11c-10.5-2.2-14.7-11.1-20.9-19.7
		c-0.6,7.7-1.3,14.2-1.5,20.7c-0.1,4.5-2.3,5.8-6.3,5.5c-4.1-0.3-4.4-2.4-4-6.1c1.8-15.8,3.1-31.7,3.8-47.9
		c-1.3,1.8-2.8,3.6-3.8,5.5c-1.5,2.7-3.2,3.6-6,1.7c-2.5-1.8-3.7-3.9-1.6-6.7c2.4-3.2,4.5-6.6,7.2-9.6c5.1-5.9,6.4-12.7,6.9-20.2
		c0.9-13.6,2.1-27.2,4.9-40.6C487,10,489.7,4,495.6,0c2.3,0,4.7,0,7,0c6.1,6,5.6,13.6,4.5,21c-2.3,15.6-7.7,30.3-15,44.2
		c-3.2,6.1-3.4,12.4-3.6,18.8c-0.1,2.5-2.3,6,0.1,7.4c1.9,1.1,4.6-1.8,6.9-3.1c7.9-4.7,15-10.5,20.6-17.9c1.5-1.9,2.8-5.4,6.1-2.3
		c2.6,2.5,4.5,5.2,1.2,9c-6.9,7.6-14.7,14-23.5,19.2c-0.7,0.4-1.4,0.8-2.2,1.2c-7.6,4.2-7.6,4.2-3.5,11.7c2.2,4.1,4.6,8.1,8.2,11.3
		c6.2,5.7,12,5.7,18-0.1c6-5.9,9.4-13.3,12.2-21c2.1-6.1,3.9-12.4,5.5-18.6c0.8-3.3,2.6-4.4,5.7-3.8c3.2,0.6,4,2.6,3.2,5.5
		c-0.2,1-0.3,2-0.4,3c-0.1,1.5-2.2,3.4,0,4.2c1.9,0.7,2.3-1.9,3.2-3.2c2.6-3.7,5.3-7.3,9.1-9.9c7.1-5.1,13.4-2.4,14.8,6.2
		c1.7,10.3-0.2,20.6,0,30.9c0,2.7-0.1,5.3,0.6,7.9c0.3,1.2,0.2,2.9,1.9,3.1c1.5,0.2,2.3-1.1,3.1-2.2c2.9-4.1,4.7-8.8,6.3-13.5
		c2-5.7,3.6-11.4,5.8-17c2.8-6.7,7.1-12.4,12.9-16.9c1.9-1.4,3.9-3.9,6.6-2.1c2.4,1.6,2.1,4.3,1.5,6.8c-0.3,0-0.6,0.2-0.8,0.4
		c-11.2,6.9-17.7,22.4-14.7,35.1c1.3,5.8,5.5,10.1,10.4,10.8c5.4,0.8,9.4-1.7,12.7-7.6c2.2-4,3.1-6.7-1.9-9.9
		c-8.9-5.7-13.6-19.9-5.7-27.6C612.8,80.6,613,80.5,613.1,80.2z M500.6,14.2c-0.2-2,0.7-4.7-1.7-5.3c-2.6-0.6-2.8,2.3-3.5,4
		c-0.6,1.4-1,2.8-1.3,4.3c-1.6,10-3,20-4.5,30c-0.1,0.8-0.3,1.9,0.6,2.2c1.6,0.5,1.8-1,2.2-2C496.9,36.7,499.4,25.5,500.6,14.2z
		 M624.5,104.5c0.2-5.5,0.8-10.3-1.1-14.8c-0.9-2.1-2.4-4.4-5.2-3.7c-2.9,0.7-2.9,3.3-2.5,5.7C616.4,97.2,619.3,101.1,624.5,104.5z"
		/>
	<path fill="#FFFFFF" d="M263.6,53.7c14.3-0.6,28.6-1.3,42.9-1.7c3.4-0.1,4.6-1.4,5-4.5c0.5-4.8,1.3-9.5,2.1-14.3
		c0.3-1.7-0.1-4.2,2.7-3.8c2.6,0.3,5.6,1.1,5.4,4.7c-0.3,4-0.9,7.9-1.8,11.8c-0.8,3.6-0.5,5.8,4.2,5.1c5.1-0.8,10.3-1,15.4-1.6
		c2.1-0.2,4.7-1.5,5.1,1.8c0.4,3,0.3,6.4-3.9,6.8c-6.1,0.7-12.3,1.3-18.4,1.5c-3.4,0.1-4.4,1.3-4.8,4.6c-1.6,14.4-3.8,28.7-3.8,43.2
		c0,5.3,0.4,11.2,5.9,13.2c5.3,1.9,8.8-3,11.9-6.6c7.1-8,10.6-17.4,11.1-28.2c0.8-16.8,2.9-33.5,7.1-49.8c1.3-5,2.8-9.9,5.4-14.4
		c1.8-3.1,4.3-5.2,8.1-4.7c4,0.5,6.6,2.7,7.8,6.7c2.5,8.8,1,17.5-0.7,26.2c-3,15.7-8.5,30.4-17.6,43.7c-2.9,4.3-1.5,8.8-2.1,14.5
		c3.7-7.8,6.8-14.5,10.2-21.1c2.3-4.5,5.1-8.6,8.9-11.9c2.7-2.3,5.7-3.8,9.2-2.2c3.3,1.6,3.8,4.8,3.8,8.1c-0.1,11.2-0.8,22.3,0,33.5
		c0.5,6.7,2.8,8.6,8.3,7.6c2.7-0.5,3.4-1.5,2.8-4.3c-2.3-10.2-1.3-20.2,2.1-30c1.8-5.3,4.5-10,9-13.6c6.7-5.3,13.9-3.9,17.7,4
		c4,8.3,3.1,16.8,0.3,25.2c-2.5,7.4-6.9,13.7-12.9,18.6c-3.3,2.7-2.2,4.2,0.6,5.9c4.5,2.8,8.3,2.5,12.3-1.1
		c5.5-4.9,8.5-11.4,11.2-18.1c0.7-1.8,1.1-4.9,4.2-3.6c2.6,1.1,1.2,3.4,0.7,5.2c-1.8,6.4-4,12.7-7.6,18.4
		c-7.4,11.9-20.1,13.7-30.3,4c-2.6-2.5-4.5-2.8-7.7-1.5c-9,3.6-15.6,0.1-18.5-9.3c-1.9-6.4-1-12.9-1.1-19.4c-0.1-6.7,0-13.5,0-20.7
		c-3,2.1-4.5,5.2-6.1,8.2c-7.3,13.9-12.7,28.6-17.4,43.5c-0.8,2.5-1.8,4.2-4.6,4.3c-3.2,0.2-5.1-0.8-4.8-4.5
		c0.4-6.1,0.7-12.3,1-19.2c-2.8,3.5-4.9,6.6-7.4,9.4c-4.5,5.1-10.2,7.8-16.9,6c-6.8-1.9-10-7.4-11.6-13.8c-0.4-1.4-0.3-3-1.4-4.3
		c-6.1,12.1-10.8,25-24.6,30.6c-2.7,0-5.3,0-8,0c-3-1.8-3.5-3.5,0.1-5.3c8.1-4.1,14.2-10.3,18.7-18.2c9.7-17,14-35.8,18.1-54.6
		c0.6-2.9-1-2.9-3.1-2.7c-8.8,0.9-17.5,1.4-26.3,2.6c-6.7,0.9-12.5,0.6-15.5-6.7C263.6,55.7,263.6,54.7,263.6,53.7z M402.7,115.3
		c9.3-7.4,14.4-21,12.3-31.4c-0.3-1.5,0.2-3.7-2-4.1c-1.9-0.3-2.9,1.3-3.9,2.6C402.4,92.2,401.2,103,402.7,115.3z M352,76.9
		c7.4-15.1,12.5-30.8,12.7-47.7c0-1.6,0.4-3.7-1.7-4.1c-1.5-0.3-2,1.3-2.5,2.6C355.2,43.8,353.3,60.3,352,76.9z"/>
</g>
</svg>
